# XSI Wavefront OBJ Export v3.0
# File Created: Thu Jan 07 12:00:26 2016
# XSI Version: 12.0.921.0
mtllib mapblock.mtl

o MapBlock
# Hierarchy (from self to top father)
g MapBlock

#begin 8 vertices
v -0.500000 -11.000000 -0.500000
v 0.500000 -11.000000 -0.500000
v -0.500000 0.000000 -0.500000
v 0.500000 0.000000 -0.500000
v -0.500000 -11.000000 0.500000
v 0.500000 -11.000000 0.500000
v -0.500000 0.000000 0.500000
v 0.500000 0.000000 0.500000
#end 8 vertices

#begin 24 normals
vn 0.000000 -0.000000 -1.000000
vn 0.000000 -0.000000 -1.000000
vn 0.000000 -0.000000 -1.000000
vn 0.000000 -0.000000 -1.000000
vn -0.000000 -1.000000 0.000000
vn -0.000000 -1.000000 0.000000
vn -0.000000 -1.000000 0.000000
vn -0.000000 -1.000000 0.000000
vn -1.000000 0.000000 -0.000000
vn -1.000000 0.000000 -0.000000
vn -1.000000 0.000000 -0.000000
vn -1.000000 0.000000 -0.000000
vn 1.000000 0.000000 0.000000
vn 1.000000 0.000000 0.000000
vn 1.000000 0.000000 0.000000
vn 1.000000 0.000000 0.000000
vn 0.000000 1.000000 0.000000
vn 0.000000 1.000000 0.000000
vn 0.000000 1.000000 0.000000
vn 0.000000 1.000000 0.000000
vn 0.000000 0.000000 1.000000
vn 0.000000 0.000000 1.000000
vn 0.000000 0.000000 1.000000
vn 0.000000 0.000000 1.000000
#end 24 vertex normals

#begin texture vertices
vt 0.997920 0.668253 0.000000
vt 0.662125 0.991068 0.000000
vt 0.991729 0.660741 0.000000
vt 0.332300 0.991334 0.000000
vt 0.668253 0.667347 0.000000
vt 0.002041 0.661150 0.000000
vt 0.997015 0.997920 0.000000
vt 0.991184 0.331035 0.000000
vt 0.661641 0.002080 0.000000
vt 0.002354 0.331325 0.000000
vt 0.667347 0.997015 0.000000
vt 0.332092 0.002041 0.000000
vt 0.661901 0.661276 0.000000
vt 0.331993 0.661466 0.000000
vt 0.661591 0.331589 0.000000
vt 0.332062 0.331638 0.000000
#end 16 texture vertices

#begin 6 faces
usemtl scene_material
f 1/1/1 3/7/2 4/11/3 2/5/4 
usemtl scene_material
f 1/2/5 2/4/6 6/14/7 5/13/8 
usemtl scene_material
f 1/3/9 5/13/10 7/15/11 3/8/12 
usemtl scene_material
f 2/6/13 4/10/14 8/16/15 6/14/16 
usemtl scene_material
f 3/9/17 7/15/18 8/16/19 4/12/20 
usemtl scene_material
f 5/13/21 6/14/22 8/16/23 7/15/24 
#end 6 faces
